<?xml version="1.0" encoding="UTF-8"?><svg id="Layer_1" xmlns="http://www.w3.org/2000/svg" viewBox="0 0 220 264"><defs><style>.cls-1{fill:#fff;}</style></defs><path d="M0,264C0,176.02,0,88.05,0,0H220V264H0Zm156.8-25.15c.43-.17,.85-.35,1.28-.52V100.83c1.03,.66,1.53,.83,1.79,1.17,9.32,11.95,14.51,25.17,13.51,40.68-1.07,16.6-1.56,33.25-2.26,49.87-.06,1.39,.21,2.79,.33,4.19,.48,.3,.96,.61,1.43,.91,.77-1.24,1.43-2.57,2.34-3.69,12.07-14.91,18.47-32.03,18.63-51.11,.24-27.47-10.28-50.18-31.86-67.5-3-2.41-5.23-4.93-5.05-9.17,.06-1.29-1.17-3.26-2.35-3.87-5.87-3.03-11.91-5.7-18.79-8.91V123.85h-52.28c-.12-1.21-.3-2.17-.3-3.13,.02-21.83,.04-43.66,.12-65.49,.02-5.77-.25-11.62-4.61-15.84-5.07-4.9-10.71-9.2-16.9-14.42V170.54c-.99-.56-1.51-.68-1.75-1.01-9.87-13.12-14.81-27.7-13.63-44.29,1.06-14.93,1.75-29.88,2.53-44.82,.1-1.9-.23-3.83-.46-7.16-2.09,2.32-3.32,3.55-4.4,4.89-28.76,35.96-22.89,88.33,13.23,117.5,3.1,2.51,5.64,5.01,5.63,9.42,0,1.36,1.08,3.36,2.25,3.97,5.98,3.12,12.15,5.89,18.95,9.1v-70.88h51.92c.16,3.41,.41,6.55,.44,9.68,.15,19.66,.18,39.33,.45,58.99,.03,2.3,.67,5.24,2.16,6.74,5.62,5.65,11.72,10.82,17.63,16.18Z"/><path class="cls-1" d="M156.8,238.85c-5.92-5.35-12.01-10.53-17.63-16.18-1.5-1.5-2.13-4.44-2.16-6.74-.27-19.66-.3-39.32-.45-58.99-.02-3.13-.28-6.27-.44-9.68h-51.92v70.88c-6.8-3.22-12.97-5.98-18.95-9.1-1.16-.61-2.25-2.61-2.25-3.97,0-4.41-2.53-6.91-5.63-9.42-36.12-29.17-41.99-81.54-13.23-117.5,1.08-1.35,2.31-2.58,4.4-4.89,.23,3.33,.56,5.25,.46,7.16-.78,14.94-1.46,29.9-2.53,44.82-1.18,16.59,3.76,31.16,13.63,44.29,.25,.33,.76,.45,1.75,1.01V24.97c6.19,5.23,11.83,9.53,16.9,14.42,4.36,4.22,4.63,10.07,4.61,15.84-.08,21.83-.1,43.66-.12,65.49,0,.96,.18,1.92,.3,3.13h52.28V53.4c6.87,3.21,12.92,5.89,18.79,8.91,1.18,.61,2.41,2.58,2.35,3.87-.18,4.24,2.05,6.76,5.05,9.17,21.58,17.31,32.09,40.03,31.86,67.5-.17,19.08-6.56,36.2-18.63,51.11-.91,1.13-1.57,2.46-2.34,3.69-.48-.3-.96-.61-1.43-.91-.12-1.4-.38-2.8-.33-4.19,.7-16.63,1.19-33.27,2.26-49.87,1-15.51-4.19-28.72-13.51-40.68-.27-.34-.76-.51-1.79-1.17V238.33c-.43,.17-.85,.35-1.28,.52Z"/></svg>